<svg width="30" height="30" viewBox="0 0 30 30" fill="none" xmlns="http://www.w3.org/2000/svg">
<g clip-path="url(#clip0)">
<path d="M20.1688 16.2162L17.6152 15.0812C17.4348 15.001 17.3183 14.8217 17.3183 14.6243V13.9231C18.1761 13.2396 18.7275 12.1871 18.7275 11.0076V10.0204C19.0101 9.86429 19.1972 9.56253 19.1972 9.22456V9.12876C19.1972 7.07352 17.5251 5.40143 15.4698 5.40143H14.5305C12.4752 5.40143 10.8031 7.07352 10.8031 9.12876V9.998C10.8031 10.2951 10.931 10.5642 11.1538 10.7364C11.1916 10.7656 11.2314 10.7912 11.2728 10.8135V11.0075C11.2728 12.187 11.8241 13.2395 12.6819 13.923V14.6243C12.6819 14.8216 12.5653 15.001 12.385 15.0811L9.83134 16.2161C8.99503 16.5878 8.45462 17.4193 8.45462 18.3345V24.159C8.45462 24.4017 8.65138 24.5984 8.89407 24.5984C9.13677 24.5984 9.33353 24.4017 9.33353 24.159V18.3346C9.33353 18.2836 9.33716 18.2333 9.34243 18.1834L10.5191 19.3601C10.7022 19.5432 10.8031 19.7867 10.8031 20.0457V24.159C10.8031 24.4017 10.9999 24.5985 11.2426 24.5985C11.4853 24.5985 11.682 24.4017 11.682 24.159V20.0457C11.682 19.552 11.4898 19.0878 11.1406 18.7386L9.73783 17.3358C9.86421 17.2046 10.0159 17.0959 10.1884 17.0192L12.6989 15.9034L14.5607 17.7653V24.159C14.5607 24.4017 14.7575 24.5984 15.0002 24.5984C15.2429 24.5984 15.4397 24.4017 15.4397 24.159V17.7653L17.3015 15.9035L19.812 17.0192C19.9845 17.0959 20.1361 17.2046 20.2625 17.3358L18.8597 18.7386C18.5106 19.0878 18.3183 19.552 18.3183 20.0457V24.159C18.3183 24.4017 18.5151 24.5985 18.7578 24.5985C19.0005 24.5985 19.1972 24.4017 19.1972 24.159V20.0457C19.1972 19.7867 19.2981 19.5432 19.4812 19.3601L20.6579 18.1834C20.6631 18.2334 20.6668 18.2836 20.6668 18.3345V24.159C20.6668 24.4017 20.8635 24.5984 21.1062 24.5984C21.3489 24.5984 21.5457 24.4017 21.5457 24.159V18.3346C21.5455 17.4194 21.0051 16.5878 20.1688 16.2162ZM15 16.9618L13.3664 15.3281C13.4906 15.1191 13.5607 14.8773 13.5607 14.6243V14.4455C14.0039 14.6317 14.4901 14.7349 15.0001 14.7349C15.51 14.7349 15.9962 14.6318 16.4393 14.4456V14.6243C16.4393 14.8773 16.5095 15.1191 16.6337 15.3282L15 16.9618ZM15.0001 13.8559C13.4295 13.856 12.1517 12.5782 12.1517 11.0076V10.8099C12.4259 10.7012 12.6935 10.5283 12.9498 10.2918C13.1281 10.1273 13.1393 9.84923 12.9746 9.67087C12.81 9.49257 12.5321 9.48138 12.3536 9.64597C12.1338 9.84888 11.9142 9.97995 11.7011 10.0356C11.6959 10.037 11.6921 10.0376 11.6894 10.0378C11.6862 10.0316 11.682 10.0187 11.682 9.99806V9.12882C11.682 7.55821 12.9598 6.28039 14.5304 6.28039H15.4698C17.0404 6.28039 18.3182 7.55821 18.3182 9.12882V9.22462C18.3182 9.23886 18.3096 9.25122 18.2984 9.25345C15.6669 9.77318 14.347 8.79366 13.9017 8.34835C13.7301 8.17673 13.4518 8.17673 13.2802 8.34835C13.1086 8.51997 13.1086 8.79823 13.2802 8.96979C14.6449 10.3344 16.6362 10.3591 17.8485 10.2134V11.0075C17.8485 12.5781 16.5707 13.8559 15.0001 13.8559Z" fill="white"/>
<path d="M7.92435 13.8259V12.8863C7.92435 11.7399 7.32857 10.7307 6.43085 10.1499C6.48628 9.97205 6.51523 9.78578 6.51523 9.59846C6.51523 8.57916 5.68601 7.74994 4.66671 7.74994C3.64741 7.74994 2.81819 8.57922 2.81819 9.59846C2.81819 9.78813 2.8469 9.97258 2.90245 10.15C2.00479 10.7307 1.40907 11.7399 1.40907 12.8863V13.8257C1.40907 14.9359 1.96764 15.9176 2.81813 16.506V17.4724C2.81813 17.663 2.71225 17.8343 2.5418 17.9195L1.02182 18.6795C0.391524 18.9947 0 19.6283 0 20.333V24.1591C0 24.4018 0.196758 24.5985 0.439454 24.5985C0.68215 24.5985 0.878908 24.4018 0.878908 24.1591V20.523L1.59481 21.2389C1.77791 21.4221 1.87881 21.6656 1.87881 21.9246V24.1591C1.87881 24.4018 2.07557 24.5985 2.31827 24.5985C2.56096 24.5985 2.75772 24.4018 2.75772 24.1591V21.9246C2.75772 21.4308 2.56542 20.9667 2.21631 20.6175L1.21992 19.6211C1.21512 19.6163 1.20996 19.6121 1.20504 19.6076C1.26756 19.5524 1.3377 19.5044 1.41492 19.4657L2.93491 18.7058C3.01278 18.6668 3.08526 18.6208 3.15282 18.5697L4.22725 19.6442V24.1591C4.22725 24.4018 4.42401 24.5986 4.66671 24.5986C4.9094 24.5986 5.10616 24.4018 5.10616 24.1591V19.6441L6.18066 18.5696C6.24827 18.6208 6.3207 18.6668 6.39857 18.7057L6.81769 18.9153C6.88079 18.9469 6.94783 18.9618 7.01392 18.9618C7.17511 18.9618 7.33033 18.8728 7.40732 18.7188C7.51589 18.5017 7.42789 18.2378 7.2108 18.1293L6.79167 17.9197C6.62117 17.8344 6.51529 17.6631 6.51529 17.4725V16.5061C7.36578 15.9177 7.92435 14.936 7.92435 13.8259ZM4.66671 8.62885C5.20138 8.62885 5.63632 9.06385 5.63632 9.59846C5.63632 9.65734 5.63105 9.71506 5.62097 9.7716C5.31897 9.67891 4.99864 9.62869 4.66671 9.62869C4.33524 9.62869 4.01532 9.67873 3.7138 9.77119C3.70366 9.71465 3.6971 9.65723 3.6971 9.59846C3.6971 9.06379 4.13204 8.62885 4.66671 8.62885ZM4.66671 10.5077C5.97833 10.5077 7.04544 11.5748 7.04544 12.8864V13.0457C5.21585 13.6058 4.12548 12.214 4.07889 12.153C4.00243 12.0511 3.88553 11.9874 3.7585 11.9784C3.63147 11.9695 3.50667 12.0159 3.41661 12.106C2.99713 12.5255 2.58627 12.7278 2.28956 12.8255C2.32207 11.5419 3.37553 10.5077 4.66671 10.5077ZM4.66671 18.8406L3.65122 17.8251C3.68087 17.7118 3.6971 17.5936 3.6971 17.4724V16.936C4.00348 17.0317 4.32921 17.0834 4.66671 17.0834C5.00421 17.0834 5.32993 17.0317 5.63632 16.936V17.4724C5.63632 17.5936 5.65255 17.7118 5.6822 17.8251L4.66671 18.8406ZM4.66671 16.2044C3.35508 16.2044 2.28797 15.1373 2.28797 13.8257V13.7347C2.63842 13.6541 3.15803 13.4671 3.70009 13.0311C3.89186 13.2121 4.16597 13.434 4.51501 13.6244C4.92786 13.8496 5.49804 14.0579 6.19448 14.0579C6.45915 14.0579 6.74234 14.0271 7.04169 13.9564C6.97355 15.2075 5.93444 16.2044 4.66671 16.2044Z" fill="white"/>
<path d="M28.9782 17.7402L26.5189 16.5105C26.3484 16.4252 26.2425 16.2539 26.2425 16.0633V15.4405C26.8182 14.9294 27.1819 14.1846 27.1819 13.3561V12.8558C27.1921 12.8558 27.202 12.8561 27.2122 12.8561C27.4549 12.8561 27.6516 12.6594 27.6516 12.4167V11.4773C27.6516 9.94003 26.4009 8.68935 24.8637 8.68935H23.9243C22.387 8.68935 21.1363 9.94003 21.1363 11.4773V12.4167C21.1363 12.6594 21.3331 12.8561 21.5758 12.8561C21.5794 12.8561 21.59 12.856 21.606 12.8554V13.3561C21.606 14.1846 21.9698 14.9295 22.5454 15.4406V16.0634C22.5454 16.254 22.4396 16.4253 22.2691 16.5105C22.052 16.619 21.964 16.883 22.0725 17.1001C22.1495 17.2541 22.3047 17.3431 22.4659 17.3431C22.532 17.3431 22.599 17.3282 22.6621 17.2967C22.74 17.2577 22.8125 17.2117 22.88 17.1606L23.9545 18.2351V24.1591C23.9545 24.4018 24.1513 24.5986 24.394 24.5986C24.6367 24.5986 24.8334 24.4018 24.8334 24.1591V18.235L25.9079 17.1605C25.9755 17.2116 26.0479 17.2576 26.1258 17.2966L28.5056 18.4865L27.7837 19.2083C27.4346 19.5575 27.2423 20.0216 27.2423 20.5154V24.159C27.2423 24.4017 27.4391 24.5985 27.6818 24.5985C27.9245 24.5985 28.1212 24.4017 28.1212 24.159V20.5154C28.1212 20.2564 28.2221 20.0129 28.4052 19.8297L29.089 19.146C29.1097 19.2255 29.1211 19.3084 29.1211 19.3935V24.159C29.1211 24.4017 29.3178 24.5985 29.5605 24.5985C29.8032 24.5985 30 24.4017 30 24.159V19.3935C30.0001 18.6889 29.6085 18.0553 28.9782 17.7402ZM22.0152 11.8868V11.4772H22.0152C22.0152 10.4246 22.8716 9.5682 23.9243 9.5682H24.8637C25.9163 9.5682 26.7727 10.4246 26.7727 11.4772V11.9654C24.8624 11.8623 23.7095 11.1189 23.6983 11.1116C23.624 11.062 23.5391 11.0378 23.4547 11.0378C23.3413 11.0378 23.2288 11.0816 23.1438 11.1665C22.7233 11.587 22.3114 11.7894 22.0152 11.8868ZM24.394 17.4315L23.3785 16.416C23.4081 16.3027 23.4244 16.1846 23.4244 16.0633V15.9698C23.7265 16.0822 24.0531 16.144 24.394 16.144C24.7348 16.144 25.0615 16.0822 25.3636 15.9698V16.0633C25.3636 16.1846 25.3797 16.3027 25.4095 16.416L24.394 17.4315ZM24.394 15.2651C23.3413 15.2651 22.4849 14.4088 22.4849 13.3561V12.6476C22.7927 12.5246 23.1513 12.3291 23.5162 12.0182C23.9777 12.2583 24.9432 12.6733 26.303 12.8104V13.3561C26.303 14.4087 25.4466 15.2651 24.394 15.2651Z" fill="white"/>
</g>
<defs>
<clipPath id="clip0">
<rect width="30" height="30" fill="white"/>
</clipPath>
</defs>
</svg>
