<svg width="16" height="16" viewBox="0 0 16 16" fill="none" xmlns="http://www.w3.org/2000/svg">
<g clip-path="url(#clip0)">
<path d="M6.34626 8.0915C6.22438 7.96932 6.02626 7.96932 5.90438 8.0915C5.7822 8.21338 5.7822 8.41151 5.90438 8.53339C6.02626 8.65558 6.22438 8.65558 6.34626 8.53339C6.46844 8.41151 6.46844 8.21338 6.34626 8.0915Z" fill="black"/>
<path d="M8 8.625C7.48306 8.625 7.0625 9.04556 7.0625 9.5625C7.0625 10.0794 7.48306 10.5 8 10.5C8.51694 10.5 8.9375 10.0794 8.9375 9.5625C8.9375 9.04556 8.51694 8.625 8 8.625ZM8 9.875C7.82769 9.875 7.6875 9.73481 7.6875 9.5625C7.6875 9.39019 7.82769 9.25 8 9.25C8.17231 9.25 8.3125 9.39019 8.3125 9.5625C8.3125 9.73481 8.17231 9.875 8 9.875Z" fill="black"/>
<path d="M8 7.0625C7.65069 7.0625 7.31291 7.13309 6.99613 7.27234C6.83813 7.34181 6.76634 7.52619 6.83578 7.68419C6.90522 7.84219 7.08962 7.91394 7.24762 7.84453C7.48466 7.74034 7.73781 7.6875 8 7.6875C9.03387 7.6875 9.875 8.52863 9.875 9.5625C9.875 10.5964 9.03387 11.4375 8 11.4375C6.96613 11.4375 6.125 10.5964 6.125 9.5625C6.125 9.55181 6.12497 9.54137 6.12522 9.53069C6.12922 9.35816 5.99259 9.21503 5.82006 9.21103C5.64725 9.20672 5.50441 9.34363 5.50041 9.51619C5.50003 9.53175 5.5 9.54694 5.5 9.5625C5.5 10.941 6.6215 12.0625 8 12.0625C9.3785 12.0625 10.5 10.941 10.5 9.5625C10.5 8.184 9.3785 7.0625 8 7.0625Z" fill="black"/>
<path d="M8 2.375C7.82741 2.375 7.6875 2.51491 7.6875 2.6875V4.5625C7.6875 4.73509 7.82741 4.875 8 4.875C8.17259 4.875 8.3125 4.73509 8.3125 4.5625V2.6875C8.3125 2.51491 8.17259 2.375 8 2.375Z" fill="black"/>
<path d="M4.50902 4.69176L3.18339 3.36614C3.06136 3.2441 2.86349 3.2441 2.74143 3.36614C2.61939 3.48817 2.61939 3.68604 2.74143 3.8081L4.06705 5.13373C4.18908 5.25576 4.38699 5.25579 4.50902 5.13373C4.63105 5.0117 4.63105 4.81382 4.50902 4.69176Z" fill="black"/>
<path d="M13.259 3.36614C13.137 3.2441 12.9391 3.2441 12.817 3.36614L11.4914 4.69176C11.3694 4.81379 11.3694 5.01166 11.4914 5.13373C11.6134 5.25576 11.8113 5.25579 11.9334 5.13373L13.259 3.8081C13.381 3.68607 13.381 3.4882 13.259 3.36614Z" fill="black"/>
<path d="M15.9217 9.61594C13.9366 7.36847 10.9889 5.5 8 5.5C5.01065 5.5 2.06306 7.36894 0.0782785 9.61594C-0.0359715 9.74531 -0.0237215 9.94278 0.105622 10.057C0.234997 10.1713 0.432497 10.159 0.546716 10.0297C0.61331 9.95428 0.681529 9.87916 0.750622 9.8045C2.29484 12.1377 5.09415 13.625 8 13.625C10.9058 13.625 13.7052 12.1377 15.2494 9.8045C15.3185 9.87919 15.3867 9.95431 15.4533 10.0297C15.5672 10.1586 15.7646 10.1716 15.8944 10.057C16.0237 9.94278 16.036 9.74528 15.9217 9.61594ZM8 13C5.25265 13 2.61028 11.5725 1.19722 9.34437C2.31059 8.25341 4.88315 6.125 8 6.125C11.1169 6.125 13.6894 8.25341 14.8028 9.34434C13.3897 11.5725 10.7473 13 8 13Z" fill="black"/>
</g>
<defs>
<clipPath id="clip0">
<rect width="16" height="16" fill="white"/>
</clipPath>
</defs>
</svg>
