<svg width="18" height="18" viewBox="0 0 18 18" fill="none" xmlns="http://www.w3.org/2000/svg">
<path d="M15.8808 8.34116C15.2683 8.03495 14.1199 8.0314 14.0713 8.0314C13.9257 8.0314 13.8076 8.14946 13.8076 8.29507C13.8076 8.44069 13.9257 8.55875 14.0713 8.55875C14.3676 8.55878 15.228 8.60441 15.6449 8.81286C15.6828 8.8318 15.723 8.84073 15.7626 8.84073C15.8593 8.84073 15.9525 8.7873 15.9987 8.69494C16.0638 8.56469 16.011 8.40631 15.8808 8.34116Z" fill="#FFCC00"/>
<path d="M17.1953 12.0952L16.1064 11.7841C16.0594 11.7706 16.0265 11.7271 16.0265 11.6782V11.3147C16.1151 11.2533 16.1996 11.1846 16.2786 11.108C16.6615 10.7364 16.8723 10.2381 16.8723 9.7047V9.20313L16.9776 8.99258C17.0932 8.76142 17.1542 8.50264 17.1542 8.24424V6.88545C17.1542 6.73984 17.0362 6.62178 16.8906 6.62178H14.3532C13.4306 6.62178 12.6799 7.37244 12.6799 8.29508V8.31079C12.6799 8.52567 12.7307 8.74086 12.8268 8.93302L12.9619 9.20309V9.63376C12.9619 10.3163 13.2982 10.9287 13.8077 11.2972L13.8077 11.6781C13.8077 11.7369 13.8077 11.7612 13.59 11.8234L13.0586 11.9752L11.5216 11.4163C11.5271 11.3438 11.5026 11.27 11.4497 11.2145L10.9586 10.6984V9.83218C11.0105 9.78939 11.0617 9.74545 11.1113 9.69897C11.7309 9.11819 12.0863 8.29821 12.0863 7.44929V6.75748C12.2734 6.35034 12.3682 5.9195 12.3682 5.47579V2.65662C12.3682 2.511 12.2501 2.39294 12.1045 2.39294H8.15755C6.76853 2.39294 5.6385 3.52301 5.6385 4.91199V5.47586C5.6385 5.91957 5.73332 6.35041 5.92042 6.75755V7.35278C5.92042 8.33842 6.35868 9.2264 7.04812 9.81182V10.6985L6.55696 11.2145C6.50405 11.2701 6.47958 11.3438 6.4851 11.4164L4.86281 12.0062C4.74525 12.049 4.63602 12.1069 4.53684 12.177L4.2821 12.0497C5.04042 11.7196 5.28064 11.2553 5.29218 11.2323C5.3293 11.1581 5.3293 11.0707 5.29218 10.9964C5.10209 10.6163 5.07906 9.91944 5.06057 9.35954C5.05441 9.17314 5.04858 8.99704 5.03743 8.84024C4.94754 7.57553 3.98609 6.62178 2.80097 6.62178C1.61585 6.62178 0.654363 7.5755 0.564504 8.84024C0.553359 8.99708 0.547523 9.17317 0.541371 9.35961C0.522879 9.91947 0.499816 10.6162 0.309762 10.9964C0.272637 11.0706 0.272637 11.158 0.309762 11.2322C0.321293 11.2553 0.561023 11.7186 1.32086 12.0491L0.613266 12.4028C0.234984 12.5921 0 12.9723 0 13.3952V15.3432C0 15.4888 0.118055 15.6069 0.263672 15.6069C0.409289 15.6069 0.527344 15.4888 0.527344 15.3432V13.3952C0.527344 13.1733 0.650637 12.9738 0.849094 12.8746L1.73021 12.434L2.03671 12.7253C2.25102 12.9289 2.52594 13.0307 2.80097 13.0307C3.07593 13.0307 3.35099 12.9289 3.56523 12.7253L3.87169 12.4341L4.15898 12.5777C4.0237 12.7942 3.94692 13.048 3.94692 13.3139V15.3433C3.94692 15.4889 4.06498 15.6069 4.21059 15.6069C4.35621 15.6069 4.47427 15.4889 4.47427 15.3433V13.3139C4.47427 12.9519 4.70282 12.6256 5.04302 12.5019L6.75345 11.8799L7.46546 12.948C7.55648 13.0846 7.70235 13.1721 7.86565 13.1883C7.88386 13.1901 7.90197 13.191 7.92004 13.191C8.06411 13.191 8.20209 13.1343 8.30524 13.0311L8.73963 12.5968V15.3433C8.73963 15.4889 8.85769 15.607 9.0033 15.607C9.14892 15.607 9.26698 15.4889 9.26698 15.3433V12.5968L9.70137 13.0311C9.80448 13.1343 9.94247 13.191 10.0866 13.191C10.1046 13.191 10.1228 13.1901 10.1409 13.1883C10.3043 13.1722 10.4501 13.0846 10.5411 12.948L11.2532 11.88L12.9636 12.5019C13.3038 12.6257 13.5323 12.952 13.5323 13.3139V15.3433C13.5323 15.489 13.6504 15.607 13.796 15.607C13.9416 15.607 14.0597 15.489 14.0597 15.3433V13.3139C14.0597 12.9473 13.914 12.6035 13.6697 12.3492L13.7348 12.3306C13.8006 12.3119 13.8902 12.2862 13.9802 12.242L14.6534 12.9152V15.3433C14.6534 15.489 14.7715 15.607 14.9171 15.607C15.0627 15.607 15.1808 15.489 15.1808 15.3433V12.9152L15.8493 12.2467C15.8848 12.2648 15.9222 12.28 15.9615 12.2913L17.0505 12.6024C17.299 12.6734 17.4727 12.9036 17.4727 13.1621V15.3433C17.4727 15.489 17.5907 15.607 17.7363 15.607C17.8819 15.607 18 15.489 18 15.3433V13.1621C18 12.6693 17.6691 12.2306 17.1953 12.0952ZM1.69154 11.6295C1.19834 11.452 0.950941 11.2154 0.845332 11.0862C0.917332 10.898 0.96402 10.6824 0.995625 10.4548C1.14103 10.8035 1.38456 11.1011 1.69154 11.3134V11.6295ZM3.20203 12.3431C2.97714 12.5568 2.62484 12.5567 2.40001 12.343L2.1548 12.11C2.19618 12.0325 2.21892 11.9446 2.21892 11.8525V11.5715C2.40286 11.629 2.5984 11.66 2.80104 11.66C3.00343 11.66 3.19887 11.6288 3.38312 11.5717L3.38309 11.8525C3.38309 11.9446 3.4058 12.0325 3.44721 12.1101L3.20203 12.3431ZM2.80111 11.1326C2.01375 11.1326 1.37324 10.4921 1.37324 9.70477C1.37324 9.55915 1.25518 9.4411 1.10957 9.4411C1.0948 9.4411 1.08039 9.44261 1.06629 9.44497C1.06706 9.42229 1.0678 9.39958 1.06857 9.37711C1.07445 9.19581 1.08011 9.02457 1.09055 8.87769C1.12423 8.40392 1.31354 7.96735 1.62362 7.64834C1.93648 7.32645 2.35463 7.1492 2.80104 7.1492C3.24745 7.1492 3.66557 7.32645 3.97846 7.64834C4.28854 7.96735 4.47785 8.40392 4.51153 8.87769C4.52194 9.02453 4.52763 9.19574 4.53361 9.37701C4.53414 9.39258 4.53466 9.40837 4.53519 9.42405C4.24832 8.98207 3.80528 8.65634 3.23283 8.47241C2.70397 8.3025 2.24912 8.31301 2.22993 8.3135C2.16088 8.31543 2.09535 8.34433 2.04743 8.39404L1.5717 8.88742C1.47062 8.99226 1.47364 9.15918 1.57848 9.26026C1.68332 9.36133 1.85024 9.35827 1.95131 9.25347L2.34717 8.84295C2.68808 8.85962 3.78485 8.98716 4.2114 9.92643C4.10407 10.6186 3.50916 11.1326 2.80111 11.1326ZM3.91039 11.6303L3.91043 11.3159C4.21717 11.1047 4.46105 10.8076 4.60656 10.4563C4.63816 10.6834 4.68482 10.8985 4.75668 11.0863C4.65166 11.2142 4.40311 11.4529 3.91039 11.6303ZM6.44776 7.35275V6.69856C6.44776 6.65887 6.4388 6.61967 6.42154 6.58392C6.25187 6.23257 6.16584 5.85977 6.16584 5.47586V4.91203C6.16584 3.81378 7.05934 2.92032 8.15755 2.92032H11.8408V5.4759C11.8408 5.85981 11.7548 6.2326 11.5851 6.58395C11.5679 6.61971 11.5589 6.65891 11.5589 6.6986V7.44936C11.5589 8.16342 11.2719 8.82573 10.7506 9.31429C10.6856 9.37525 10.618 9.43242 10.5482 9.48568C10.5467 9.48673 10.5452 9.48789 10.5437 9.48898C10.0554 9.8597 9.45731 10.0399 8.83273 9.99942C7.49535 9.91283 6.44776 8.75028 6.44776 7.35275ZM7.93237 12.6582C7.93055 12.66 7.92629 12.6644 7.91768 12.6634C7.9091 12.6626 7.90573 12.6576 7.90428 12.6554L7.08427 11.4254L7.34815 11.1481L8.59215 11.9984L7.93237 12.6582ZM9.00334 11.6407L7.57547 10.6647V10.1725C7.94493 10.3722 8.35861 10.4971 8.79859 10.5256C8.86809 10.5301 8.93718 10.5323 9.00605 10.5323C9.51022 10.5323 9.99545 10.4118 10.4312 10.183V10.6647L9.00334 11.6407ZM10.1024 12.6555C10.101 12.6576 10.0976 12.6627 10.089 12.6635C10.0804 12.6646 10.0762 12.6601 10.0743 12.6583L9.41453 11.9985L10.6585 11.1481L10.9225 11.4254L10.1024 12.6555ZM14.9171 12.433L14.3187 11.8347C14.3292 11.7873 14.3351 11.7353 14.335 11.6781L14.335 11.5668C14.501 11.6213 14.676 11.6536 14.8571 11.659C14.8775 11.6597 14.8976 11.66 14.9179 11.66C15.118 11.66 15.3133 11.6297 15.4992 11.572V11.6782C15.4992 11.7308 15.5058 11.7823 15.5182 11.8319L14.9171 12.433ZM15.9114 10.7295C15.6319 11.0007 15.2628 11.144 14.873 11.1319C14.11 11.1091 13.4892 10.437 13.4892 9.63383V9.1409C13.4892 9.09994 13.4797 9.05958 13.4614 9.02299L13.2985 8.69723C13.2388 8.57787 13.2073 8.44428 13.2073 8.31083V8.29511C13.2073 7.66321 13.7214 7.14916 14.3532 7.14916H16.6269V8.24428C16.6269 8.42125 16.5851 8.59848 16.5059 8.75678L16.3728 9.02299C16.3545 9.05962 16.345 9.09994 16.345 9.1409V9.70474C16.345 10.0943 16.191 10.4582 15.9114 10.7295Z" fill="#FFCC00"/>
<path d="M16.6089 13.388C16.4633 13.388 16.3452 13.5061 16.3452 13.6517V15.3432C16.3452 15.4888 16.4633 15.6069 16.6089 15.6069C16.7545 15.6069 16.8726 15.4888 16.8726 15.3432V13.6517C16.8726 13.5061 16.7545 13.388 16.6089 13.388Z" fill="#FFCC00"/>
<path d="M1.39111 13.7365C1.2455 13.7365 1.12744 13.8546 1.12744 14.0002V15.3432C1.12744 15.4888 1.2455 15.6069 1.39111 15.6069C1.53673 15.6069 1.65479 15.4888 1.65479 15.3432V14.0002C1.65479 13.8546 1.53673 13.7365 1.39111 13.7365Z" fill="#FFCC00"/>
<path d="M11.1634 5.57137C10.1662 4.57413 8.07969 4.76479 7.22884 4.89303C6.96084 4.93343 6.76636 5.16022 6.76636 5.43229V6.03972C6.76636 6.18534 6.88441 6.30339 7.03003 6.30339C7.17565 6.30339 7.2937 6.18534 7.2937 6.03972V5.43226C7.2937 5.42329 7.29961 5.41563 7.30748 5.41443C7.64734 5.36321 8.32175 5.28418 9.02048 5.33076C9.84272 5.3855 10.4383 5.5919 10.7906 5.94424C10.8935 6.04721 11.0605 6.04721 11.1634 5.94424C11.2664 5.84126 11.2664 5.67431 11.1634 5.57137Z" fill="#FFCC00"/>
<path d="M5.90234 13.9519C5.75673 13.9519 5.63867 14.0699 5.63867 14.2155V15.3433C5.63867 15.4889 5.75673 15.6069 5.90234 15.6069C6.04796 15.6069 6.16602 15.4889 6.16602 15.3433V14.2155C6.16602 14.07 6.04796 13.9519 5.90234 13.9519Z" fill="#FFCC00"/>
<path d="M12.105 13.9519C11.9594 13.9519 11.8413 14.0699 11.8413 14.2155V15.3433C11.8413 15.4889 11.9594 15.6069 12.105 15.6069C12.2506 15.6069 12.3687 15.4889 12.3687 15.3433V14.2155C12.3687 14.07 12.2506 13.9519 12.105 13.9519Z" fill="#FFCC00"/>
</svg>
